<?xml version="1.0" encoding="utf-8"?>
<!-- Generator: Adobe Illustrator 27.8.0, SVG Export Plug-In . SVG Version: 6.00 Build 0)  -->
<svg version="1.1" id="Layer_1" xmlns="http://www.w3.org/2000/svg" xmlns:xlink="http://www.w3.org/1999/xlink" x="0px" y="0px"
	 viewBox="0 0 612 792" style="enable-background:new 0 0 612 792;" xml:space="preserve">
<style type="text/css">
	.st0{fill:none;stroke:#231F20;stroke-width:2;stroke-miterlimit:10;}
	.st1{fill:#231F20;}
	.st2{fill:none;stroke:#231F20;stroke-width:2;stroke-miterlimit:10;stroke-dasharray:4,4;}
	.st3{font-family:'CambayDevanagari-Regular';}
	.st4{font-size:14px;}
	.st5{fill:#00FFE6;}
	.st6{fill:none;stroke:#231F20;stroke-width:2;stroke-miterlimit:10;stroke-dasharray:4;}
	.st7{fill:none;stroke:#231F20;stroke-width:2;stroke-miterlimit:10;stroke-dasharray:4.1989,4.1989;}
</style>
<image style="overflow:visible;" width="299" height="64" xlink:href="792EF5DE4834DBCF.jpg"  transform="matrix(0.75 0 0 0.75 193.5 363)">
</image>
<g>
	<g>
		<line class="st0" x1="240.8" y1="374" x2="377.9" y2="374"/>
		<g>
			<polygon class="st1" points="242.2,378.9 233.8,374 242.2,369.1 			"/>
		</g>
	</g>
</g>
<g>
	<g>
		<line class="st2" x1="282.8" y1="356.4" x2="375.9" y2="356.4"/>
		<g>
			<polygon class="st1" points="284.2,361.3 275.8,356.4 284.2,351.5 			"/>
		</g>
	</g>
</g>
<line class="st0" x1="377.9" y1="351.8" x2="377.9" y2="361"/>
<text transform="matrix(1 0 0 1 280.6756 330.6091)"><tspan x="0" y="0" class="st3 st4">travelled distance d </tspan><tspan x="16.7" y="16.8" class="st3 st4">on segment s</tspan></text>
<text transform="matrix(1 0 0 1 276.5927 412.4198)" class="st3 st4">segment s</text>
<text transform="matrix(1 0 0 1 194.9643 343.5292)" class="st3 st4">location (s,d)</text>
<circle class="st5" cx="275.8" cy="374" r="8.4"/>
<line class="st6" x1="302.8" y1="374" x2="302.8" y2="404.4"/>
<line class="st0" x1="275.8" y1="351.8" x2="275.8" y2="361"/>
<g>
	<line x1="253" y1="350.4" x2="276.6" y2="374"/>
	<g>
		<line class="st0" x1="253" y1="350.4" x2="254.4" y2="351.8"/>
		<line class="st7" x1="257.4" y1="354.8" x2="273.7" y2="371.1"/>
		<line class="st0" x1="275.2" y1="372.6" x2="276.6" y2="374"/>
	</g>
</g>
</svg>
